<svg width="222" height="268" viewBox="0 0 222 268" fill="none" xmlns="http://www.w3.org/2000/svg">
<g clip-path="url(#clip0)">
<path d="M166.619 207.589C165.867 218.977 163.005 230.305 158.097 240.627C153.87 249.518 148.247 254.675 138.965 257.477C134.462 258.836 135.16 257.49 138.525 254.971C147.649 248.143 157.871 243.152 166.124 235.121C171.609 229.784 176.298 223.347 178.55 215.959C178.909 214.778 179.722 211.178 179.264 212.325C177.895 215.752 176.798 219.267 175.361 222.677C170.683 233.777 164.982 245.969 154.744 253.016C153.458 253.902 143.434 258.543 149.576 254.723C163.264 246.211 177.274 233.796 181.876 217.666C181.983 217.291 182.893 213.401 182.893 216.179C182.893 224.692 180.887 233.861 178.495 241.976C177.017 246.988 174.552 251.299 170.688 254.834C170.337 255.155 165.352 259.519 167.554 256.706C171.226 252.013 175.748 248.241 178.824 243.05C181.549 238.453 183.781 233.524 184.927 228.293C184.973 228.082 185.576 225.023 185.697 225.127C186.324 225.665 186.273 228.014 186.302 228.513C186.489 231.784 186.535 235.069 186.659 238.342C186.857 243.574 187.667 249.508 186.631 254.696C186.038 257.668 185.917 253.431 185.917 252.879C185.917 243.533 186.327 234.214 186.412 224.879C186.447 221.017 184.902 218.294 184.047 214.637C182.963 209.997 178.123 210.106 174.289 209.819C173.764 209.78 168.788 209.566 169.643 209.874C174.705 211.7 180.136 212.448 185.229 214.224C188.878 215.497 189.183 216.776 185.092 217.501C180.245 218.359 175.407 217.969 170.578 218.492C169.445 218.614 172.726 219.25 173.794 219.648C176.638 220.708 179.385 222.001 181.628 224.108C182.44 224.871 185.937 228.218 184.432 229.807C182.746 231.587 177.233 230.856 175.251 230.881C172.587 230.915 168.834 230.884 166.179 230.991C164.15 231.073 158.453 230.687 156.833 232.671C155.746 234.001 170.233 238.005 171.155 238.342C172.365 238.784 173.572 239.239 174.756 239.746C175.658 240.133 178.112 240.912 177.23 241.343C175.58 242.15 170.639 240.717 169.176 240.517C163.854 239.79 147.782 238.635 153.149 238.838C160.745 239.125 169.15 239.612 176.295 242.389C179.881 243.783 179.966 245.605 176.598 247.125C171.678 249.344 165.759 249.763 160.516 250.539C153.374 251.596 146.184 252.455 139.13 254.035C137.834 254.325 134.133 255.357 135.446 255.549C139.963 256.21 144.97 255.785 149.493 256.017C153.147 256.205 160.062 255.792 163.32 258.468C163.612 258.707 164.553 260.491 164.145 261.056C162.531 263.29 153.861 262.535 152.38 262.57C145.524 262.731 138.668 262.764 131.818 263.093C129.847 263.188 124.608 264.911 125.907 263.423C126.813 262.386 131.046 261.527 132.092 261.221C135.962 260.089 139.846 259.372 143.858 258.991C145.762 258.81 151.465 258.821 149.576 258.523C147.081 258.128 144.391 258.208 141.879 258.165C136.492 258.072 128.834 259.639 123.956 256.871C123.565 256.649 123.151 256.651 122.719 256.651C121.591 256.651 124.973 256.646 126.1 256.651C137.106 256.695 148.14 257.427 159.142 256.926C166.039 256.612 178.529 256.35 183.91 250.511C187.411 246.712 188.192 240.975 188.858 236.057C189.748 229.485 189.875 222.83 189.875 216.207C189.875 214.492 190.03 212.495 188.996 211.003C188.541 210.347 187.596 210.538 187.016 209.957C186.395 209.335 186.356 208.233 186.412 209.902C186.531 213.503 187.949 217.074 188.666 220.584C190.234 228.266 191.854 236.157 191.854 244.014C191.854 254.917 181.738 258.373 172.282 258.11C166.167 257.94 178.917 255.591 179.429 255.494C182.69 254.882 185.942 254.48 189.243 254.2C190.753 254.072 192.036 254.069 190.15 252.686C186.423 249.953 180.138 247.876 178.934 242.775C177.78 237.882 182.811 234.913 185.917 232.368" stroke="#FCE93D" stroke-width="6" stroke-linecap="round" stroke-linejoin="round"/>
<path d="M64.6884 214.527C56.3133 214.527 31.197 214.165 39.5631 214.555C46.9736 214.9 54.3564 214.982 61.7745 215.023C62.6499 215.028 65.3598 214.69 66.2278 215.298C66.6646 215.604 65.239 215.718 64.7159 215.821C61.1314 216.528 63.5239 215.942 59.2455 216.867C55.5843 217.659 51.9646 218.633 48.3597 219.648C46.5381 220.161 41.6539 220.497 43.0817 221.741C43.8809 222.436 47.6015 222.429 48.3322 222.539C52.2457 223.125 56.1067 223.988 59.9602 224.879C67.8912 226.712 52.8306 224.81 51.7684 224.659C47.8847 224.107 43.9961 223.768 40.0854 223.503C38.1388 223.37 47.0239 224.509 47.0952 224.521C48.5403 224.762 63.6944 226.544 63.8362 228.816C63.9078 229.963 47.639 228.148 45.9956 228.018C45.5927 227.986 45.1893 227.962 44.786 227.935C44.2645 227.9 43.9699 227.891 45.0335 227.935C49.727 228.131 54.4343 228.476 59.0256 229.532C62.1944 230.261 65.7248 231.317 68.5369 233.028C72.3505 235.35 64.7359 235.751 63.9737 235.782C59.4675 235.964 45.9665 234.846 50.4764 234.846C57.4845 234.846 65.2124 236.414 71.2859 240.022C71.6674 240.248 75.338 242.35 75.0519 243.353C74.5653 245.058 64.0187 243.244 63.5063 243.188C57.7629 242.558 52.0403 241.863 46.2705 241.508C43.7578 241.354 36.3669 241.804 38.7384 240.958C42.5124 239.611 47.5893 239.64 51.4385 239.388C58.2749 238.941 65.1377 238.715 71.9456 239.691C76.3545 240.323 81.0589 241.379 85.1955 243.105C88.9797 244.684 82.1285 244.961 81.8968 244.977C74.6129 245.498 67.3026 245.584 60.0152 246.078C55.1203 246.411 50.3632 246.834 45.5008 247.4C43.9894 247.576 39.8044 247.164 40.9925 248.116C42.1741 249.063 51.7918 248.226 52.2632 248.226C61.4811 248.226 70.8847 247.69 80.0825 248.419C82.3014 248.594 88.0388 250.107 86.1301 251.254C84.1633 252.436 77.6781 252.865 76.3439 252.961C72.3901 253.247 65.4465 253.403 61.3897 253.347C59.7846 253.325 58.18 253.244 56.579 253.127C55.4638 253.045 52.5414 253.199 53.3078 252.383C54.6552 250.949 57.1314 251.429 59.0805 251.172C64.0942 250.509 68.2698 250.129 73.375 249.878C80.2082 249.542 87.3563 249.325 94.1021 250.759C96.4685 251.262 102.914 253.045 102.624 256.761C102.382 259.851 97.2862 260.593 95.3666 260.89C85.3554 262.44 74.5171 261.984 64.5509 260.312C62.1503 259.91 58.2933 259.235 56.0567 257.862C54.1816 256.711 60.4 257.019 62.5992 257.009C70.2203 256.973 77.8702 257.337 85.4154 258.468C85.4886 258.479 97.8954 260.342 97.7307 261.992C97.4729 264.574 61.711 260.455 59.0256 260.147C54.355 259.612 49.6421 259.054 45.006 258.247C40.9435 257.541 45.361 257.307 46.6003 257.256C51.2445 257.068 55.9199 257.103 60.565 257.201C64.7945 257.29 69.9834 256.998 73.9523 258.853C76.0274 259.823 73.2979 260.115 72.4954 260.23C67.0806 261.004 61.4703 261.405 56.0017 261.386C50.8112 261.368 41.9862 260.948 38.1336 256.651C36.4909 254.818 36.0323 251.826 35.8245 249.492C35.2042 242.524 36.712 235.454 37.5288 228.568C38.2726 222.299 38.1443 215.995 38.8483 209.737C39.9103 200.297 38.5687 228.733 38.491 238.232C38.4486 243.413 38.2375 248.739 38.9033 253.897C39.037 254.933 39.4908 257.397 40.2228 258.468C40.7901 259.297 41.2675 258.531 41.4323 257.972C43.1211 252.244 43.5151 245.644 44.4012 239.801C45.4669 232.775 46.4557 225.732 47.5625 218.712C49.0535 209.254 46.4747 237.832 46.1055 247.4C46.0471 248.914 45.9956 250.428 45.9956 251.943C45.9956 253.046 45.3636 255.15 46.4629 255.219C47.9536 255.312 50.0857 238.265 50.119 238.067C51.3086 230.967 52.5105 223.865 53.4727 216.73C53.7139 214.941 54.2453 206.454 54.2974 214.307C54.3111 216.381 53.9015 243.531 59.3829 241.701C61.3184 241.055 62.092 233.848 62.3243 232.753C63.3922 227.721 64.306 222.654 65.3206 217.611C65.674 215.854 65.7857 210.763 66.5577 212.38C67.0877 213.49 66.6424 214.839 66.6676 216.069C66.7293 219.069 66.8028 222.292 67.1075 225.265C67.6082 230.151 68.4929 234.971 70.3787 239.526C71.1417 241.369 73.773 246.106 74.1722 244.151C75.3964 238.157 72.6976 230.471 71.8356 224.494C71.6092 222.923 72.9074 227.484 73.5675 228.926C77.4367 237.381 82.7794 245.033 87.8345 252.796C88.995 254.578 90.1254 256.845 91.573 258.468C92.3014 259.284 90.604 254.416 90.5284 254.228C89.9897 252.889 89.3226 251.591 88.8241 250.236C88.7723 250.095 91.1641 253.532 91.4631 253.953C92.2869 255.111 98.8973 262.372 96.0813 263.699C92.5539 265.361 87.4328 264.376 83.9585 263.506C77.0337 261.772 70.2129 258.676 64.1386 254.944C60.4745 252.692 57.0982 250.036 55.3695 245.996C54.8142 244.698 52.815 238.212 56.0017 237.957C58.3139 237.771 60.1566 241.376 60.9498 242.94C61.5813 244.185 62.2159 246.036 62.4892 247.455C62.5902 247.979 62.9116 249.072 62.3793 249.052C61.1312 249.006 59.9726 244.392 59.9602 244.344C57.7143 235.635 57.1346 226.19 57.1838 217.225C57.192 215.73 57.8997 211.331 58.036 212.82C58.6659 219.708 57.1543 227.327 56.0017 234.075C55.3916 237.646 54.7606 241.433 52.5656 244.427C51.4489 245.949 49.61 247.481 48.9369 244.784C48.0237 241.126 48.7145 236.87 49.2393 233.249C49.397 232.161 51.2413 216.845 52.703 216.62C53.029 216.569 52.7257 217.281 52.703 217.611C52.5747 219.474 52.2685 221.433 51.9608 223.255C51.1414 228.107 50.1883 233.046 48.4147 237.654C47.0389 241.228 45.4809 242.512 45.2534 237.544C45.0746 233.64 45.3856 229.647 46.4354 225.87C46.5651 225.404 49.7376 215.874 51.6034 219.813C53.6901 224.219 53.5325 230.701 54.0775 235.369C54.7697 241.297 54.7698 248.87 57.2662 254.448C58.2863 256.727 59.4506 253.422 59.7403 252.686C61.4622 248.314 62.1071 243.583 63.7538 239.196C63.8799 238.86 64.0301 238.092 64.331 238.287C65.7977 239.237 64.8348 241.751 65.0183 243.49C65.3805 246.925 65.4083 251.918 68.8668 253.897C72.3834 255.91 74.0194 248.851 76.5088 250.704C79.4969 252.928 80.4371 258.053 84.2609 259.211C86.456 259.876 89.1788 258.881 91.4081 258.633" stroke="#FCE93D" stroke-width="5" stroke-linecap="round" stroke-linejoin="round"/>
<path d="M75.4518 83.3351C75.4518 92.3211 75.799 100.936 73.8052 109.722C72.8827 113.788 73.1494 119.612 73.6745 123.754C74.1194 127.263 73.7845 130.607 74.9814 133.963C76.9071 139.364 80.7574 143.528 84.3648 147.864C87.457 151.58 90.8197 155.305 94.4801 158.466C99.4306 162.74 104.86 168.859 111.208 170.979" stroke="black" stroke-width="5" stroke-linecap="round" stroke-linejoin="round"/>
<path d="M170.489 81.4503C170.489 93.6752 167.858 105.581 168.438 117.788C169.01 129.823 165.134 137.64 158.527 149.881C153.902 155.837 150.929 160.182 143.661 162.123C138.706 163.447 133.587 165.734 129.086 166.947C124.713 168.127 120.275 169.189 115.913 170.403C112.856 171.253 109.655 170.979 106.503 170.979" stroke="black" stroke-width="5" stroke-linecap="round" stroke-linejoin="round"/>
<path d="M95.212 162.497C95.212 171.677 95.212 180.856 95.212 190.036C95.212 193.905 95.307 197.759 94.846 201.607C94.6743 203.04 94.271 204.408 94.271 205.848" stroke="black" stroke-width="5" stroke-linecap="round" stroke-linejoin="round"/>
<path d="M148.376 162.026C148.376 173.419 148.787 184.881 146.024 195.952" stroke="black" stroke-width="5" stroke-linecap="round" stroke-linejoin="round"/>
<path d="M93.3301 206.319C82.6552 206.319 72.0958 206.654 61.442 207.366C56.9617 207.665 52.4985 208.489 48.0595 209.146C46.5963 209.363 43.5301 209.075 42.5183 210.088" stroke="black" stroke-width="5" stroke-linecap="round" stroke-linejoin="round"/>
<path d="M148.376 201.607C156.282 201.607 164.271 202.173 172.161 202.654C176.392 202.911 181.231 202.981 185.074 204.905" stroke="black" stroke-width="5" stroke-linecap="round" stroke-linejoin="round"/>
<path d="M77.3337 213.387C83.2226 217.203 88.5149 221.701 95.212 224.12C99.0754 225.515 103.09 225.469 106.974 226.58" stroke="black" stroke-width="5" stroke-linecap="round" stroke-linejoin="round"/>
<path d="M131.909 226.58C138.322 226.58 146.172 227.927 152.192 225.376C155.03 224.174 157.145 221.718 159.668 220.455" stroke="black" stroke-width="5" stroke-linecap="round" stroke-linejoin="round"/>
<path d="M70.2766 208.203C70.2766 212.753 70.1813 216.843 71.4789 221.214C72.9355 226.121 76.5628 230.275 79.4771 234.381C83.0952 239.48 86.5993 242.392 92.363 244.957C96.736 246.904 100.3 250.102 104.622 252.025" stroke="black" stroke-width="5" stroke-linecap="round" stroke-linejoin="round"/>
<path d="M163.431 204.905C163.431 211.091 164.394 217.47 160.975 222.916C156.265 230.416 150.362 237.476 143.044 242.523C135.875 247.466 128.122 250.841 120.435 254.8C118.684 255.702 116.636 256.321 114.763 256.947C113.895 257.236 112.543 256.891 112.149 257.68" stroke="black" stroke-width="5" stroke-linecap="round" stroke-linejoin="round"/>
<path d="M112.62 140.351C118.967 140.351 125.096 141.533 131.439 141.293C133.813 141.203 137.284 138.339 138.026 136.11" stroke="black" stroke-width="5" stroke-linecap="round" stroke-linejoin="round"/>
<path d="M112.62 116.79C111.704 119.141 111.373 121.056 112.149 123.387" stroke="black" stroke-width="5" stroke-linecap="round" stroke-linejoin="round"/>
<path d="M132.85 116.319C132.85 118.787 132.829 120.827 131.439 122.916" stroke="black" stroke-width="5" stroke-linecap="round" stroke-linejoin="round"/>
<path d="M114.502 92.7592C114.502 97.4712 114.502 102.183 114.502 106.895" stroke="black" stroke-width="5" stroke-linecap="round" stroke-linejoin="round"/>
<path d="M99.4463 96.0575C99.3289 93.7057 98.5228 93.5027 96.3882 93.7277C94.3547 93.9421 94.2931 96.8676 94.271 98.4135C94.2426 100.405 93.7167 103.701 95.4472 105.167C96.2527 105.85 98.501 106.271 99.4202 105.639C105.34 101.563 93.4958 87.4014 93.8005 101.136C93.8426 103.033 95.3749 102.654 96.8587 102.654C98.9518 102.654 99.8929 100.898 100.283 98.9894C101.001 95.4738 94.6839 92.5833 93.8267 95.8743C93.3703 97.6264 92.5192 101.526 93.9051 103.021C94.8473 104.037 96.9045 104.512 98.0087 103.544C99.3249 102.391 99.0221 100.197 98.9758 98.623C98.9413 97.4478 97.0218 97.7781 96.6234 98.623C95.8561 100.25 95.7434 103.134 97.0939 104.487C98.1763 105.571 99.1233 104.651 99.3417 103.387C99.6269 101.737 99.8072 99.3352 98.7144 97.9423C97.3994 96.266 95.847 96.9446 95.7086 98.8847C95.5016 101.787 99.0656 103.733 99.4202 99.8271C99.7456 96.2423 94.8284 95.7202 94.7415 99.7224C94.6528 103.811 98.1592 104.157 98.8713 100.037C99.3825 97.0783 95.6825 94.0294 95.6825 98.2041C95.6825 101.39 98.993 104.983 99.4202 100.063C99.6935 96.9143 95.4609 96.474 94.7415 99.3559" stroke="black" stroke-width="5" stroke-linecap="round" stroke-linejoin="round"/>
<path d="M138.967 98.4136C139.034 101.778 140.729 104.787 144.821 104.042C147.419 103.569 145.818 95.3829 145.083 93.911C144.151 92.0453 140.884 92.33 140.169 94.1728C139.339 96.3106 139.497 100.77 142.469 100.77C144.079 100.77 145.487 96.2003 144.403 95.1152C143.672 94.3826 141.483 94.4666 140.587 94.7487C139.092 95.2193 139.437 98.0846 139.437 99.2513C139.437 102.309 142.89 102.689 143.88 99.8534C144.791 97.2466 143.877 94.644 140.848 94.644C138.614 94.644 138.853 99.3137 140.273 100.298C142.942 102.149 143.558 97.855 142.939 96.0837C142.682 95.3458 142.112 94.1332 141.319 93.8063C140.599 93.5094 140.848 97.1805 140.848 97.5759C140.848 99.1914 140.32 101.607 142.155 102.288C143.604 102.825 144.025 102.083 144.612 100.77C145.734 98.2584 144.609 94.8275 141.319 95.1937C138.881 95.465 139.335 101.62 141.319 102.393C144.007 103.44 145.794 97.5083 144.299 95.9528C142.036 93.5995 139.908 95.5077 139.908 97.9424" stroke="black" stroke-width="5" stroke-linecap="round" stroke-linejoin="round"/>
<path d="M74.5109 96.5287C72.4776 96.9261 69.7242 97.1343 68.1855 98.6753C66.5661 100.297 66.9832 102.633 66.9832 104.749C66.9832 108.55 68.9454 111.32 72.629 112.55" stroke="black" stroke-width="5" stroke-linecap="round" stroke-linejoin="round"/>
<path d="M71.688 105.482C72.3153 105.953 72.9426 106.424 73.5699 106.895" stroke="black" stroke-width="5" stroke-linecap="round" stroke-linejoin="round"/>
<path d="M170.018 99.356C172.851 99.356 174.369 99.8231 175.559 102.654C176.22 104.225 175.664 107.052 175.664 108.78C175.664 110.737 174.525 112.053 173.782 113.728C173.065 115.343 170.094 115.226 169.548 116.319" stroke="black" stroke-width="5" stroke-linecap="round" stroke-linejoin="round"/>
<path d="M171.9 106.424C171.148 107.2 170.593 107.916 170.018 108.78" stroke="black" stroke-width="5" stroke-linecap="round" stroke-linejoin="round"/>
<path d="M109.326 69.6703C103.184 65.4871 101.328 59.8581 101.328 52.5238C101.328 50.9378 100.389 46.1102 102.74 46.1102" stroke="black" stroke-width="5" stroke-linecap="round" stroke-linejoin="round"/>
<path d="M98.9758 68.2567C95.7513 61.5393 95.0751 52.4752 96.4143 45.194C96.7342 43.455 98.2443 38.2396 100.858 39.9846" stroke="black" stroke-width="5" stroke-linecap="round" stroke-linejoin="round"/>
<path d="M119.206 41.8694C119.206 47.7694 120.069 54.4545 118.945 60.2462C118.627 61.8861 117.787 68.2567 115.443 68.2567" stroke="black" stroke-width="5" stroke-linecap="round" stroke-linejoin="round"/>
<path d="M125.793 41.3982C127.441 47.2221 128.997 52.7575 129.452 58.8327C129.615 61.0078 129.557 63.1974 129.557 65.3771C129.557 66.675 128.821 66.3719 127.675 66.3719" stroke="black" stroke-width="5" stroke-linecap="round" stroke-linejoin="round"/>
<path d="M137.085 39.5134C143.566 44.0953 143.988 52.5086 145.789 59.7227C146.483 62.5061 147.141 66.1558 143.671 67.3143" stroke="black" stroke-width="5" stroke-linecap="round" stroke-linejoin="round"/>
<path d="M154.022 68.2566C154.022 63.5272 154.022 58.7977 154.022 54.0682C154.022 51.749 154.486 48.8597 153.917 46.5814C153.452 44.7163 151.033 43.7542 149.317 43.7542" stroke="black" stroke-width="5" stroke-linecap="round" stroke-linejoin="round"/>
<path d="M158.727 74.8535C163.719 65.896 159.904 52.473 153.081 45.639" stroke="black" stroke-width="5" stroke-linecap="round" stroke-linejoin="round"/>
<path d="M164.372 78.1519C164.372 71.894 165.418 64.2195 163.667 58.1782C162.395 53.7916 159.773 49.62 157.786 45.639" stroke="black" stroke-width="5" stroke-linecap="round" stroke-linejoin="round"/>
<path d="M171.9 94.1727C171.9 85.1339 173.593 74.5542 170.384 65.9006C168.743 61.475 165.225 55.063 159.668 55.063" stroke="black" stroke-width="5" stroke-linecap="round" stroke-linejoin="round"/>
<path d="M168.607 80.9791C168.607 74.5979 168.771 68.1947 168.607 61.8169C168.479 56.8714 165.445 53.1072 162.491 49.4086" stroke="black" stroke-width="5" stroke-linecap="round" stroke-linejoin="round"/>
<path d="M171.43 100.77C172.861 97.0966 173.312 94.2671 173.312 90.2722C173.312 85.6875 172.489 81.2405 172.371 76.7383C172.244 71.9098 170.7 64.6988 167.195 61.1886" stroke="black" stroke-width="5" stroke-linecap="round" stroke-linejoin="round"/>
<path d="M167.195 85.6911C167.195 90.1501 167.195 94.609 167.195 99.068C167.195 102.931 168.1 105.332 169.652 108.885C171.366 112.808 174.293 116.065 176.605 119.644C177.844 121.562 180.12 123.582 180.839 125.743" stroke="black" stroke-width="5" stroke-linecap="round" stroke-linejoin="round"/>
<path d="M168.136 87.5759C168.136 92.7766 168.136 97.9773 168.136 103.178C168.136 108.006 167.461 113.341 169.103 117.968C171.124 123.66 173.775 129.505 178.016 133.754" stroke="black" stroke-width="5" stroke-linecap="round" stroke-linejoin="round"/>
<path d="M73.5699 94.1727C69.9394 87.7732 70.7471 79.8681 70.7471 72.7592C70.7471 64.1462 71.2383 56.3301 76.7065 49.1992C82.0863 42.1835 87.5127 35.6006 96.7802 34.906C99.586 34.6958 102.256 34.4113 105.014 33.8589C106.06 33.6494 106.35 33.0591 106.033 34.3301" stroke="black" stroke-width="5" stroke-linecap="round" stroke-linejoin="round"/>
<path d="M78.2747 84.2775C78.2747 80.1723 77.968 75.9044 78.3793 71.8169C78.8201 67.4357 80.7648 63.3391 82.509 59.3562C84.2922 55.2843 86.0374 50.9854 88.6253 47.3405C90.6033 44.5547 95.4859 36.6862 99.4463 36.6862" stroke="black" stroke-width="5" stroke-linecap="round" stroke-linejoin="round"/>
<path d="M92.3891 65.9006C92.3891 55.6142 92.2153 46.0891 99.211 37.8641C99.9434 37.0031 103.627 31.3421 104.622 34.3301" stroke="black" stroke-width="5" stroke-linecap="round" stroke-linejoin="round"/>
<path d="M113.561 59.775C113.561 54.3565 114.406 48.141 113.456 42.8118C113.188 41.3069 107.516 32.3011 106.503 34.3302" stroke="black" stroke-width="5" stroke-linecap="round" stroke-linejoin="round"/>
<path d="M139.437 59.3038C139.437 54.1286 139.827 49.6933 136.98 45.1678C135.041 42.0864 132.51 40.1151 129.531 38.1259C127.109 36.509 123.829 36.6655 121.088 35.9793C119.022 35.4618 116.636 34.3301 114.502 34.3301" stroke="black" stroke-width="5" stroke-linecap="round" stroke-linejoin="round"/>
<path d="M151.199 60.2462C151.199 50.0731 153.593 36.4714 142.73 31.0317" stroke="black" stroke-width="5" stroke-linecap="round" stroke-linejoin="round"/>
<path d="M114.502 56.4766C114.502 51.3003 113.273 44.2393 115.939 39.5657C117.399 37.0063 122.714 35.9578 124.852 38.0997" stroke="black" stroke-width="5" stroke-linecap="round" stroke-linejoin="round"/>
<path d="M146.024 57.419C146.024 50.8292 143.977 41.728 137.738 38.0998C132.642 35.1361 125.15 32.9166 119.206 32.9166" stroke="black" stroke-width="5" stroke-linecap="round" stroke-linejoin="round"/>
<path d="M106.033 59.775C106.033 53.4444 103.851 42.6413 108.856 37.6286C111.992 34.4877 115.506 34.3301 119.677 34.3301" stroke="black" stroke-width="5" stroke-linecap="round" stroke-linejoin="round"/>
<path d="M87.6843 68.2566C87.6843 63.2191 87.0617 57.6435 88.2594 52.707C89.1978 48.8389 90.9634 42.8482 94.4802 40.4557C97.7324 38.2433 102.287 37.3755 106.033 36.4243C107.849 35.9634 110.276 35.2725 112.149 35.2725" stroke="black" stroke-width="5" stroke-linecap="round" stroke-linejoin="round"/>
<path d="M81.0976 71.5551C81.0976 63.7701 79.0864 53.0983 84.966 46.9479C88.2974 43.4631 92.4373 34.8014 98.0349 34.8014" stroke="black" stroke-width="5" stroke-linecap="round" stroke-linejoin="round"/>
<path d="M79.6862 75.3247C78.602 69.051 77.5788 61.4758 79.4771 55.3248C80.3436 52.5169 82.2149 41.3982 86.2729 41.3982" stroke="black" stroke-width="5" stroke-linecap="round" stroke-linejoin="round"/>
<path d="M78.7452 79.0943C76.1301 75.2663 75.62 70.4297 74.7723 65.953C74.148 62.6566 73.5699 59.1089 73.5699 55.7437C73.5699 52.924 72.8033 48.2917 74.9814 46.1102" stroke="black" stroke-width="5" stroke-linecap="round" stroke-linejoin="round"/>
<path d="M74.9814 83.3351C73.8905 75.2775 73.8822 66.2736 74.8769 58.2044C75.151 55.9809 76.8153 44.2254 79.2157 44.2254" stroke="black" stroke-width="5" stroke-linecap="round" stroke-linejoin="round"/>
<path d="M67.4537 96.5287C67.4537 90.7394 66.9199 84.5868 67.5583 78.8325C67.8582 76.1287 69.3203 68.2567 73.0995 68.2567" stroke="black" stroke-width="5" stroke-linecap="round" stroke-linejoin="round"/>
<path d="M75.4519 90.4031C75.4519 94.9581 75.4519 99.513 75.4519 104.068C75.4519 107.117 75.6578 110.214 74.9552 113.204C74.3803 115.651 73.2224 118.007 72.7335 120.455C71.9022 124.618 69.1242 130.974 71.2175 135.167" stroke="black" stroke-width="5" stroke-linecap="round" stroke-linejoin="round"/>
<path d="M79.6862 86.1624C79.6862 91.3805 79.6862 96.5986 79.6862 101.817C79.6862 110.245 78.7152 117.319 75.8178 125.272C74.1169 129.941 71.1681 134.622 69.9107 139.408C69.4937 140.995 68.3722 145.051 70.2766 146.005" stroke="black" stroke-width="5" stroke-linecap="round" stroke-linejoin="round"/>
<path d="M79.2157 143.178C79.2157 147.08 80.6653 154.593 78.2747 157.785" stroke="black" stroke-width="5" stroke-linecap="round" stroke-linejoin="round"/>
<path d="M82.509 148.361C82.509 151.763 83.9268 160.494 79.1634 161.555C75.2202 162.432 75.2426 169.129 77.3338 171.921" stroke="black" stroke-width="5" stroke-linecap="round" stroke-linejoin="round"/>
<path d="M105.332 32.5937C103.081 32.2573 101.276 31.7531 100.645 29.3251C100.086 27.172 100.201 24.5658 100.402 22.3708C100.947 16.4174 108.896 12.003 114.081 10.5136C116.523 9.81204 120.254 8.79141 122.761 9.71384C125.645 10.7751 127.571 14.0668 128.489 16.8073C130.261 22.0986 128.877 29.3072 122.691 30.9594C119.924 31.6985 118.696 31.0116 117.518 28.4558C116.053 25.277 115.019 21.683 115.019 18.1634C115.019 15.7967 116.459 14.9163 118.699 14.5819C122.421 14.026 124.966 16.235 126.128 19.6933C127.355 23.3438 128.145 28.5267 124.323 30.8899C121.251 32.7891 116.4 31.9155 113.526 30.0206C108.538 26.7319 108.488 17.1566 114.758 15.1382C116.839 14.4684 120.728 14.1721 122.327 16.0075C124.676 18.7048 124.461 23.0207 122.24 25.6741C116.779 32.1988 104.457 32.2242 101.513 23.3792C98.4677 14.2291 108.906 8.84779 116.633 8.56637C121.548 8.38737 126.788 9.85428 129.826 14.0082C133.121 18.5125 134.346 26.6627 130.191 31.029C128.39 32.9214 123.162 36.4976 120.643 33.8107C118.154 31.1561 118.293 24.7402 119.046 21.4667C120.799 13.8447 131.703 10.5866 135.433 18.3372C137.176 21.9593 138.263 28.2062 135.711 31.6896C134.154 33.8134 130.658 35.1735 128.941 32.5937C126.857 29.4629 125.941 24.0407 126.788 20.354C127.555 17.0152 133.199 16.7118 135.85 16.6508C140.388 16.5463 143.143 17.8225 143.852 22.6316C144.35 26.0088 144.555 30.7597 141.092 32.6458C133.593 36.7305 129.989 20.8775 130.104 16.0423C130.185 12.6169 132.316 11.5784 135.485 12.0088C139.472 12.5503 141.24 17.2347 141.665 20.7017C142.186 24.9599 141.034 28.1833 136.666 29.5338C131.459 31.1433 126.558 29.2833 123.577 24.8048C119.781 19.1029 119.642 9.39472 127.621 7.14072C129.608 6.57966 130.439 8.16917 130.763 9.93985C131.513 14.0254 129.949 19.3143 127.639 22.6663C125.645 25.5599 121.942 28.0452 118.265 26.9085C113.01 25.2843 112.227 19.0351 112.606 14.408C112.991 9.69353 115.225 4.76609 119.532 2.37699C125.453 -0.907269 126.788 9.62433 126.753 13.0519C126.685 19.8526 123.037 25.7094 116.859 28.6645C112.992 30.5137 107.143 31.3464 103.596 28.3863C100.362 25.6868 99.5126 21.0127 101.201 17.1898C102.707 13.7775 106.925 10.3676 110.818 12.426C115.127 14.7049 115.896 23.7643 114.914 27.8647C113.888 32.1526 110.043 35.1968 105.888 36.2099C101.085 37.3809 98.5805 35.3012 97.2426 30.6117C95.8399 25.6946 96.208 20.5115 100.541 17.3462C102.851 15.6585 107.797 13.6228 110.245 16.2683C112.696 18.9168 111.434 24.0092 109.62 26.5955C107.266 29.9507 101.625 33.2712 97.4509 31.6548C93.1466 29.9879 92.997 23.3705 93.2674 19.6064C93.6381 14.4449 96.7922 9.79957 101.582 7.67969C105.084 6.12991 108.594 6.39035 109.95 10.3397C110.388 11.6158 111.47 16.0633 109.707 16.9464" stroke="black" stroke-width="5" stroke-linecap="round" stroke-linejoin="round"/>
<path d="M128.455 30.0901C130.764 30.6968 133.696 31.1016 136.11 30.6812C139.57 30.0785 140.441 23.4341 138.992 21.0147C137.451 18.4422 134.813 16.0781 132.551 14.1646C130.927 12.7899 128.954 11.6139 126.736 12.0088C122.04 12.8449 120.945 21.8945 124.601 24.3875C129.415 27.67 135.433 24.2659 137.377 19.3804C140.369 11.8615 132.575 6.70349 125.955 5.81939C117.48 4.68767 110.995 11.1844 108.283 18.7893C107.586 20.743 106.447 24.2313 107.797 26.1435C109.466 28.507 113.699 29.0534 116.303 29.0122C125.891 28.8606 124.567 15.6115 119.966 10.531C115.301 5.3798 104.112 3.20439 101.027 11.1221C100.122 13.4444 98.9467 18.7743 101.096 20.806C103.085 22.6859 106.917 22.385 109.168 21.3798C111.897 20.1614 113.685 17.3374 112.415 14.3385C110.978 10.946 106.536 9.91771 103.284 9.78338C96.2545 9.49307 88.0059 13.9753 88.8408 22.0578C89.2146 25.6771 94.5503 25.9175 97.2774 25.9175C100.565 25.9175 104.17 24.5951 105.749 21.4667C107.2 18.592 103.419 17.6465 101.392 17.3115C98.1978 16.7839 94.1508 16.7251 92.3473 19.9715C88.6659 26.5983 91.8706 38.1364 100.471 38.331C103.957 38.4099 106.774 35.9828 108.318 33.0109C109.847 30.0665 110.978 25.1639 107.415 23.2748C104.934 21.9592 101.254 21.5339 98.4925 22.0926C96.5071 22.4943 95.9244 24.353 97.8849 25.2568C102.894 27.5661 108.95 28.4236 114.394 28.6992C120.652 29.0162 127.425 28.6272 132.603 24.6657C134.1 23.5211 136.052 20.7585 134.426 18.8936C132.813 17.0431 128.687 17.3371 127.205 19.137C125.318 21.4286 125.721 26.0465 126.84 28.5602C128.298 31.8356 131.792 33.7784 135.155 34.4714C137.819 35.0203 141.042 35.1373 142.116 32.0721C142.71 30.3787 143.105 27.5077 140.988 26.7868C135.724 24.9944 135.485 34.4167 137.655 37.1488C138.689 38.4501 141.025 39.8049 142.55 38.5744C145.439 36.2436 145.522 31.3229 145.883 27.969C146.673 20.6402 146.011 10.7222 136.683 10.7222C132.192 10.7222 128.668 12.8256 126.163 16.5639C124.654 18.8167 123.483 22.0068 124.479 24.7005C125.155 26.5272 127.779 28.3786 129.774 27.6213C132.79 26.4766 132.036 21.656 130.92 19.4673C128.712 15.1389 123.237 12.3299 118.733 11.1395C113.108 9.65245 104.749 9.04113 99.7597 12.6347C96.9172 14.6818 95.6715 18.2821 95.2463 21.6232C94.9407 24.0246 94.5063 29.3565 97.0343 30.8899C101.554 33.6314 102.629 23.938 99.1869 21.7797C95.7042 19.5958 87.6785 18.4358 85.7161 23.1705C84.2168 26.788 84.5065 32.2621 88.4589 33.8455" stroke="black" stroke-width="5" stroke-linecap="round" stroke-linejoin="round"/>
<path d="M124.717 61.1703C124.717 56.9783 124.717 52.7863 124.717 48.5943C124.717 46.2798 124.786 43.5874 123.579 41.5143C123.035 40.5815 122.368 39.7134 122.155 38.6475" stroke="black" stroke-width="5" stroke-linecap="round" stroke-linejoin="round"/>
<path d="M131.834 55.7534C131.834 50.1985 132.34 44.5409 129.936 39.3603C129.157 37.6812 127.558 34.464 125.571 33.8008" stroke="black" stroke-width="5" stroke-linecap="round" stroke-linejoin="round"/>
<path d="M136.104 59.1746C136.104 54.132 136.351 49.0278 135.534 44.0327C135.368 43.0113 133.826 38.4623 133.826 41.7836" stroke="black" stroke-width="5" stroke-linecap="round" stroke-linejoin="round"/>
<path d="M132.972 64.3063C132.972 58.6147 133.462 52.6856 132.688 47.0421C132.481 45.5347 131.596 40.944 129.841 40.3581" stroke="black" stroke-width="5" stroke-linecap="round" stroke-linejoin="round"/>
<path d="M126.71 62.8809C126.71 52.9975 126.71 43.1141 126.71 33.2307" stroke="black" stroke-width="5" stroke-linecap="round" stroke-linejoin="round"/>
<path d="M115.608 61.4554C115.608 57.0522 115.608 52.649 115.608 48.2459C115.608 44.7777 115.224 41.127 116.968 37.9823C117.492 37.038 120.546 35.1398 121.301 36.6519" stroke="black" stroke-width="5" stroke-linecap="round" stroke-linejoin="round"/>
<path d="M109.63 60.0299C109.63 56.3764 109.63 52.7229 109.63 49.0694C109.63 46.6069 109.472 44.1077 110.769 41.9103C111.56 40.5691 113.357 38.9326 115.039 38.9326" stroke="black" stroke-width="5" stroke-linecap="round" stroke-linejoin="round"/>
<path d="M99.3824 62.3107C99.3824 57.6849 99.2084 53.0249 99.4456 48.4042C99.6529 44.3675 100.899 41.4869 103.273 38.204C104.036 37.1486 107.353 34.5065 107.353 37.222" stroke="black" stroke-width="5" stroke-linecap="round" stroke-linejoin="round"/>
<path d="M142.651 64.3064C142.651 57.8441 142.651 51.3819 142.651 44.9197C142.651 42.2908 142.933 39.8165 140.943 37.8239C140.024 36.9037 138.761 36.9369 137.559 36.9369C136.435 36.9369 137.222 38.0359 137.527 38.6475" stroke="black" stroke-width="5" stroke-linecap="round" stroke-linejoin="round"/>
<path d="M149.198 64.5915C149.198 60.5632 149.613 56.2339 149.024 52.2372C148.598 49.3451 146.309 46.3657 144.138 44.4762C143.103 43.5764 141.933 43.4117 140.801 42.7814C139.738 42.1903 141.119 45.5362 141.228 45.775" stroke="black" stroke-width="5" stroke-linecap="round" stroke-linejoin="round"/>
<path d="M156.599 67.4425C156.599 64.587 156.958 61.4469 155.904 58.7311C154.627 55.443 151.894 51.8517 149.198 49.5446C147.866 48.4048 146.468 47.2832 145.213 46.0601C144.665 45.5261 144.096 44.3602 143.505 44.0644" stroke="black" stroke-width="5" stroke-linecap="round" stroke-linejoin="round"/>
<path d="M162.293 73.1444C162.293 71.022 162.293 68.8996 162.293 66.7772C162.293 64.1327 162.692 61.275 161.723 58.7628C160.104 54.5661 158.783 50.2339 155.714 46.852C152.493 43.3042 150.059 39.2161 144.849 38.9485C143.927 38.9011 140.658 38.9517 140.658 40.3581" stroke="black" stroke-width="5" stroke-linecap="round" stroke-linejoin="round"/>
<path d="M166.847 74.855C166.847 71.5048 167.009 68.1104 166.626 64.7815C166.198 61.0659 164.307 58.0578 162.72 54.7556C160.973 51.1231 157.025 48.6249 154.18 45.9017C148.483 40.4495 142.666 36.2927 134.68 35.2263" stroke="black" stroke-width="5" stroke-linecap="round" stroke-linejoin="round"/>
<path d="M170.263 77.1358C170.263 73.5773 170.263 70.0189 170.263 66.4604C170.263 64.4468 169.192 62.8911 168.555 61.0436C167.681 58.5081 166.912 56.1359 165.424 53.9003C164.074 51.8731 163.218 49.6492 161.723 47.7073C160.369 45.9474 159.259 44.1571 157.327 42.9557C155.24 41.6583 152.871 41.0711 150.495 40.6432C144.65 39.5908 138.606 39.5028 132.688 39.5028" stroke="black" stroke-width="5" stroke-linecap="round" stroke-linejoin="round"/>
<path d="M175.956 100.514C176.904 94.2932 178.982 87.6607 177.807 81.3014C176.996 76.9167 175.138 72.5606 173.837 68.2978C172.974 65.4672 171.883 61.1482 168.555 60.315" stroke="black" stroke-width="5" stroke-linecap="round" stroke-linejoin="round"/>
<path d="M173.679 96.5225C173.679 87.1143 173.679 77.706 173.679 68.2978" stroke="black" stroke-width="5" stroke-linecap="round" stroke-linejoin="round"/>
<path d="M174.818 111.918C175.393 107.436 176.75 103.157 177.664 98.7399C178.108 96.5945 178.272 94.3552 178.582 92.1827C178.785 90.7573 179.345 89.2689 179.372 87.8429C179.394 86.7041 179.528 85.4037 179.088 84.3266C178.511 82.9155 177.298 81.6657 176.589 80.2719C175.569 78.2668 173.477 76.7318 172.54 74.855" stroke="black" stroke-width="5" stroke-linecap="round" stroke-linejoin="round"/>
<path d="M166.847 52.9025C171.282 53.8543 173.323 58.8326 174.818 62.6592C176.563 67.1257 177.949 72.5997 177.949 77.4209" stroke="black" stroke-width="5" stroke-linecap="round" stroke-linejoin="round"/>
<path d="M68.9237 95.6672C68.9237 90.9685 68.7954 86.4845 68.0697 81.8241C67.7218 79.5905 67.4787 77.3694 67.0892 75.1401C66.846 73.7484 66.3844 72.2071 66.3617 70.8003C66.3014 67.0586 65.7929 60.9564 70.6316 59.7448" stroke="black" stroke-width="5" stroke-linecap="round" stroke-linejoin="round"/>
<path d="M156.228 154.563C156.228 158.858 156.228 163.153 156.228 167.448" stroke="black" stroke-width="6" stroke-linecap="round" stroke-linejoin="round"/>
<path d="M160.681 150.103C160.681 152.363 161.03 154.949 160.599 157.179C160.28 158.828 158.136 159.71 156.998 160.758C155.431 162.201 154.744 163.837 154.744 165.961" stroke="black" stroke-width="6" stroke-linecap="round" stroke-linejoin="round"/>
<path d="M2.09467 259.836C34.8731 259.836 67.9821 260.437 100.522 264.881C105.65 265.581 111.5 266.346 117.607 266.346C123.714 266.346 131.742 264.761 137.699 264.496C146.139 264.12 154.566 263.536 163.01 263.085C176.253 262.379 190.82 263.58 203.814 260.606C209.223 259.368 214.749 259.067 220.29 259.067" stroke="black" stroke-width="5" stroke-linecap="round" stroke-linejoin="round"/>
<path d="M30.9752 257.61C31.1418 241.82 31.6664 225.271 40.0682 211.447" stroke="black" stroke-width="5" stroke-linecap="round" stroke-linejoin="round"/>
<path d="M197.785 258.238C197.785 256.035 197.821 253.828 197.75 251.626C197.544 245.301 195.729 239.327 194.388 233.185C193.249 227.971 192.656 222.65 191.479 217.448C190.854 214.69 190.265 211.453 188.378 209.249" stroke="black" stroke-width="5" stroke-linecap="round" stroke-linejoin="round"/>
</g>
<defs>
<clipPath id="clip0">
<path d="M0 0H222V268H0V0Z" fill="white"/>
</clipPath>
</defs>
</svg>
