<svg xmlns="http://www.w3.org/2000/svg" viewBox="0 0 1316.21 1858.24">
  <title>ill_sarah</title>
  <path d="M1259.84,1403.18c-10.75,145.35-137.77,306.36-278.85,376.87-119.39-70.51-270.47-226.17-305.79-357.5-83.12-.15-154.45,2.85-206.39,43.26-80.85,62.91-157.68,285.31-161.72,386.4h1287.4c8.08-117.26-89.47-372.22-193.94-420C1354.43,1411.15,1307.07,1405,1259.84,1403.18Z" transform="translate(-292.91 -8.14)" style="fill: #ffe816"/>
  <path d="M632.64,808.7c-16.85,36.11-72.36,13-83.73-4.18-25.21-38-37-139.74,0-151.66,45.38-14.61,75.51,2.49,78.88,64.45,2.5,45.92,2.81,155.15,24.64,205.17,36.19,82.94,148.23,230.21,201.19,256.69s169.54,22.56,217.68-8.73,146.11-94.82,219.07-249.63c20.47-43.43,44.43-130.15,45.74-174.06,1.75-58.86,43.47-93.35,83.65-66.92,24.22,15.93,2.68,121.3-31.15,144.4-22.09,15.08-58.73,11.74-59.14-41.46" transform="translate(-292.91 -8.14)" style="fill: none;stroke: #000;stroke-linecap: round;stroke-miterlimit: 10;stroke-width: 35px"/>
  <path d="M824.29,670.71c-25.8-1.66-35,44.27-35,64s13.69,57.81,35,57.81,33.94-36.74,28.91-71.5C849.13,693,845.59,672.07,824.29,670.71Z" transform="translate(-292.91 -8.14)"/>
  <path d="M1058.44,862.76c25.19,19.33,18.12,48.65-.43,54.48" transform="translate(-292.91 -8.14)" style="fill: none;stroke: #000;stroke-linecap: round;stroke-miterlimit: 10;stroke-width: 35px"/>
  <path d="M922.36,862.76c-29.1,21.43-13.15,49.3,0,55.24" transform="translate(-292.91 -8.14)" style="fill: none;stroke: #000;stroke-linecap: round;stroke-miterlimit: 10;stroke-width: 35px"/>
  <path d="M1084.86,750.72c19.33-21.08,65-31,94.87,13.49" transform="translate(-292.91 -8.14)" style="fill: none;stroke: #000;stroke-linecap: round;stroke-miterlimit: 10;stroke-width: 35px"/>
  <path d="M1069.45,612.32c23.72,11.42,88.72,8.79,109.8,17.57" transform="translate(-292.91 -8.14)" style="fill: none;stroke: #000;stroke-linecap: round;stroke-miterlimit: 10;stroke-width: 35px"/>
  <path d="M749.7,589.49c24.59-7.91,80.07-14.94,104.6-9.67" transform="translate(-292.91 -8.14)" style="fill: none;stroke: #000;stroke-linecap: round;stroke-miterlimit: 10;stroke-width: 35px"/>
  <path d="M887.73,1005.35c56.4,16.33,133.57,16.33,195.9-13.36" transform="translate(-292.91 -8.14)" style="fill: none;stroke: #000;stroke-linecap: round;stroke-miterlimit: 10;stroke-width: 35px"/>
  <path d="M655.64,1116.64c28.87-36.47,25.49-116.32-3.21-194.16s-26.13-170.06-9.35-249.69c22.27-105.73,27.76-208,99.18-258.2s162.59-34.95,221.86-33.43,107.89,0,180.83,18.24,135.48,103.16,156.75,173.06,42.07,136.47,27.77,210.31c-12.07,62.27-45.85,156.57-25,221.37,15.19,47.16,40,60.59,74.46,65.4" transform="translate(-292.91 -8.14)" style="fill: none;stroke: #000;stroke-linecap: round;stroke-miterlimit: 10;stroke-width: 35px"/>
  <path d="M684.51,1147c35-36.47,43.66-90,26.48-115.51s-64.47-79.34-100.94-95.13S542.5,795,525.37,738.53s-43-143.11-20.17-203.89,82.71-227.59,190.45-276c104.79-47.12,178.81-5.09,248.71-23.33s214.26,1.52,300.88,60.79,161.08,145.88,168.68,234,30.36,153.45,19.74,224.13-74.45,160-112.44,182.19-71.72,38.82-77.65,67.74,6.23,54.76,18.39,59.32" transform="translate(-292.91 -8.14)" style="fill: none;stroke: #000;stroke-linecap: round;stroke-miterlimit: 10;stroke-width: 35px"/>
  <path d="M789.31,235.77C731.4,179.26,797.53,42.5,918,49.22s144.12,74,157,118.83" transform="translate(-292.91 -8.14)" style="fill: none;stroke: #000;stroke-linecap: round;stroke-miterlimit: 10;stroke-width: 35px"/>
  <path d="M951.26,161.32c24.52-80.71,138.86-107.61,210.6-51.56s68.94,105.26,39,161.37" transform="translate(-292.91 -8.14)" style="fill: none;stroke: #000;stroke-linecap: round;stroke-miterlimit: 10;stroke-width: 35px"/>
  <path d="M832.29,154.6c0-62.78,46.29-132.28,148.7-132.28,88.46,0,117.76,26.66,143.36,66.66" transform="translate(-292.91 -8.14)" style="fill: none;stroke: #000;stroke-linecap: round;stroke-miterlimit: 10;stroke-width: 35px"/>
  <path d="M798.32,1135.13c31.91,65,43.7,210.49,35.84,283.86-150.54,13-282.56-17.59-365.35,46.82-80.85,62.91-157.68,285.31-161.72,386.4h1287.4c8.08-117.26-89.47-372.22-193.94-420-98.58-45.06-202.84-21.93-299.38-34,2.41-62.75,19.31-205.15,54.12-290.92" transform="translate(-292.91 -8.14)" style="fill: none;stroke: #000;stroke-linecap: round;stroke-linejoin: round;stroke-width: 35px"/>
  <path d="M675.2,1422.55c35.32,131.33,186.4,287,305.79,357.5,141.08-70.51,268.1-231.52,278.85-376.87" transform="translate(-292.91 -8.14)" style="fill: none;stroke: #000;stroke-linecap: round;stroke-miterlimit: 10;stroke-width: 35px"/>
  <path d="M632.64,808.7c2.51-28.13-37.65-116.29-65.9-84.62" transform="translate(-292.91 -8.14)" style="fill: none;stroke: #000;stroke-linecap: round;stroke-miterlimit: 10;stroke-width: 35px"/>
  <path d="M1400.55,737.2c-15.32-36.9-64.44,9.55-71.08,45.57" transform="translate(-292.91 -8.14)" style="fill: none;stroke: #000;stroke-linecap: round;stroke-miterlimit: 10;stroke-width: 35px"/>
</svg>
